<svg width="17" height="11" viewBox="0 0 17 11" fill="none" xmlns="http://www.w3.org/2000/svg">
<path fill-rule="evenodd" clip-rule="evenodd" d="M11.4927 2.56882C9.79419 2.56882 8.41027 3.95274 8.41027 5.65126C8.41027 7.34977 9.79419 8.73369 11.4927 8.73369C13.1912 8.73369 14.5751 7.34977 14.5751 5.65126C14.5751 3.95274 13.1912 2.56882 11.4927 2.56882ZM9.34866 5.65126C9.34866 4.46326 10.3047 3.50721 11.4927 3.50721C12.6807 3.50721 13.6368 4.46326 13.6368 5.65126C13.6368 6.83925 12.6807 7.7953 11.4927 7.7953C10.3047 7.7953 9.34866 6.83925 9.34866 5.65126Z" fill="#808183"/>
<path fill-rule="evenodd" clip-rule="evenodd" d="M4.95961 0.935547C2.35898 0.935547 0.243896 3.05063 0.243896 5.65126C0.243896 8.25188 2.35898 10.367 4.95961 10.367H11.4927C14.0933 10.367 16.2084 8.25188 16.2084 5.65126C16.2084 3.05063 14.0933 0.935547 11.4927 0.935547H4.95961ZM1.18229 5.65126C1.18229 3.56112 2.86947 1.87394 4.95961 1.87394H11.4927C13.5828 1.87394 15.27 3.56112 15.27 5.65126C15.27 7.7414 13.5828 9.42858 11.4927 9.42858H4.95961C2.86947 9.42858 1.18229 7.7414 1.18229 5.65126Z" fill="#808183"/>
</svg>
