<svg width="32" height="32" viewBox="0 0 32 32" fill="none" xmlns="http://www.w3.org/2000/svg">
<path fill-rule="evenodd" clip-rule="evenodd" d="M20.9107 11.4554C18.3573 11.4554 16.2768 13.5359 16.2768 16.0893C16.2768 18.6427 18.3573 20.7232 20.9107 20.7232C23.4641 20.7232 25.5446 18.6427 25.5446 16.0893C25.5446 13.5359 23.4641 11.4554 20.9107 11.4554ZM17.6875 16.0893C17.6875 14.3033 19.1248 12.8661 20.9107 12.8661C22.6967 12.8661 24.1339 14.3033 24.1339 16.0893C24.1339 17.8752 22.6967 19.3125 20.9107 19.3125C19.1248 19.3125 17.6875 17.8752 17.6875 16.0893Z" fill="#808183"/>
<path fill-rule="evenodd" clip-rule="evenodd" d="M11.0893 9C7.17968 9 4 12.1797 4 16.0893C4 19.9989 7.17968 23.1786 11.0893 23.1786H20.9107C24.8203 23.1786 28 19.9989 28 16.0893C28 12.1797 24.8203 9 20.9107 9H11.0893ZM5.41071 16.0893C5.41071 12.9471 7.94711 10.4107 11.0893 10.4107H20.9107C24.0529 10.4107 26.5893 12.9471 26.5893 16.0893C26.5893 19.2315 24.0529 21.7679 20.9107 21.7679H11.0893C7.94711 21.7679 5.41071 19.2315 5.41071 16.0893Z" fill="#808183"/>
</svg>
