<svg width="21" height="20" viewBox="0 0 21 20" fill="none" xmlns="http://www.w3.org/2000/svg">
<path d="M10.5392 2.25395C10.4115 2.25831 10.2886 2.30338 10.1884 2.38257L4.51585 6.85155C3.79589 7.41894 3.37463 8.28595 3.37463 9.20257V16.8216C3.37463 17.3658 3.82819 17.8194 4.37242 17.8194H8.36355C8.90778 17.8194 9.36133 17.3658 9.36133 16.8216V12.8304C9.36133 12.7127 9.44313 12.6309 9.56089 12.6309H11.5565C11.6742 12.6309 11.756 12.7127 11.756 12.8304V16.8216C11.756 17.3658 12.2096 17.8194 12.7538 17.8194H16.7449C17.2892 17.8194 17.7427 17.3658 17.7427 16.8216V9.20257C17.7427 8.28595 17.3215 7.41894 16.6015 6.85155L10.9289 2.38257C10.8182 2.29512 10.6802 2.24957 10.5392 2.25395ZM10.5587 3.61499L15.8609 7.79243C16.2936 8.13342 16.5454 8.65206 16.5454 9.20257V16.622H12.9533V12.8304C12.9533 12.0662 12.3207 11.4336 11.5565 11.4336H9.56089C8.7966 11.4336 8.16399 12.0662 8.16399 12.8304V16.622H4.57197V9.20257C4.57197 8.65206 4.82371 8.13342 5.25639 7.79243L10.5587 3.61499Z" fill="#2B2D31"/>
</svg>
