<svg width="13" height="15" viewBox="0 0 13 15" fill="none" xmlns="http://www.w3.org/2000/svg">
<path fill-rule="evenodd" clip-rule="evenodd" d="M2.77535 2.48043C2.86579 2.38999 2.98845 2.33918 3.11635 2.33917H9.33585C9.46375 2.33918 9.58641 2.38999 9.67686 2.48043C9.76729 2.57087 9.81811 2.69353 9.81812 2.82143V7.94337C9.81811 8.07127 9.76729 8.19393 9.67686 8.28437C9.58641 8.37481 9.46375 8.42563 9.33586 8.42564H3.11635C2.98845 8.42563 2.86579 8.37481 2.77535 8.28437C2.68491 8.19393 2.6341 8.07127 2.63409 7.94338V2.82143C2.6341 2.69353 2.68492 2.57087 2.77535 2.48043ZM8.8536 3.30369H3.59861V4.90014H8.8536V3.30369ZM8.8536 5.86466H3.59861V7.46112H8.8536V5.86466Z" fill="#808183"/>
<path d="M5.49705 10.3241C5.69041 10.1307 5.95265 10.0221 6.2261 10.0221C6.49955 10.0221 6.7618 10.1307 6.95516 10.3241C7.14852 10.5174 7.25715 10.7797 7.25715 11.0531C7.25715 11.3266 7.14852 11.5888 6.95516 11.7822C6.7618 11.9755 6.49955 12.0842 6.2261 12.0842C5.95266 12.0842 5.69041 11.9755 5.49705 11.7822C5.30369 11.5888 5.19506 11.3266 5.19506 11.0531C5.19506 10.7797 5.30369 10.5174 5.49705 10.3241Z" fill="#808183"/>
<path fill-rule="evenodd" clip-rule="evenodd" d="M0.438965 2.08972C0.438965 1.02166 1.31658 0.144043 2.38464 0.144043H10.0676C11.1356 0.144043 12.0132 1.02166 12.0132 2.08972V12.6995C12.0132 13.7675 11.1356 14.6452 10.0676 14.6452H2.38464C1.31658 14.6452 0.438965 13.7675 0.438965 12.6995V2.08972ZM10.0676 1.10857H2.38464C1.83636 1.10857 1.40349 1.54144 1.40349 2.08972V12.6995C1.40349 13.2478 1.83636 13.6806 2.38464 13.6806H10.0676C10.6159 13.6806 11.0487 13.2478 11.0487 12.6995V2.08972C11.0487 1.54144 10.6159 1.10857 10.0676 1.10857Z" fill="#808183"/>
</svg>
