<svg width="17" height="17" viewBox="0 0 17 17" fill="none" xmlns="http://www.w3.org/2000/svg">
<g clip-path="url(#clip0_582_16362)">
<path fill-rule="evenodd" clip-rule="evenodd" d="M8.22625 2.13745C7.50255 2.13745 6.85545 2.35125 6.37869 2.71367C5.98197 3.01436 5.70301 3.42594 5.61955 3.89355H1.78723C1.3059 3.89355 0.90918 4.29027 0.90918 4.7716V14.7228C0.90918 15.2041 1.3059 15.6009 1.78723 15.6009H14.6653C15.1466 15.6009 15.5433 15.2041 15.5433 14.7228V4.7716C15.5433 4.29027 15.1466 3.89355 14.6653 3.89355H10.833C10.7495 3.42594 10.4705 3.01436 10.0738 2.71367C9.59706 2.35125 8.94996 2.13745 8.22625 2.13745ZM9.71711 3.18013C9.35697 2.90689 8.83563 2.72282 8.22625 2.72282C7.61688 2.72282 7.09554 2.90689 6.7354 3.18013C6.46787 3.38364 6.28837 3.62373 6.21406 3.89355H10.2384C10.1641 3.62373 9.98464 3.38364 9.71711 3.18013ZM14.6653 4.47891H1.78723C1.62145 4.47891 1.49455 4.60582 1.49455 4.7716V14.7228C1.49455 14.8886 1.62145 15.0155 1.78723 15.0155H14.6653C14.8311 15.0155 14.958 14.8886 14.958 14.7228V4.7716C14.958 4.60582 14.8311 4.47891 14.6653 4.47891Z" fill="#808183" stroke="#808183" stroke-width="0.399113"/>
<path fill-rule="evenodd" clip-rule="evenodd" d="M13.4711 7.45898C13.3834 7.45898 13.2958 7.4914 13.2288 7.55642L10.8282 9.88718C10.694 9.82476 10.5456 9.78714 10.3871 9.78714C10.1395 9.78714 9.91496 9.87628 9.7373 10.0184L7.96779 8.98814C7.98126 8.92383 7.98854 8.85746 7.98854 8.78936C7.98854 8.23925 7.52733 7.79158 6.96057 7.79158C6.39381 7.79158 5.9326 8.23925 5.9326 8.78936C5.9326 8.92451 5.96117 9.05301 6.01157 9.17068L4.02121 10.9096C3.8755 10.8327 3.71121 10.7849 3.53399 10.7849C3.2157 10.7849 2.93433 10.9294 2.74561 11.1507C2.55689 11.3719 2.52316 11.5201 2.50602 11.7827C2.48888 12.4119 2.96724 12.7805 3.53399 12.7805C4.10075 12.7805 4.56197 12.3328 4.56197 11.7827C4.56197 11.6473 4.53355 11.5186 4.48299 11.4007L6.47335 9.66242C6.61906 9.73941 6.78335 9.78714 6.96057 9.78714C7.20845 9.78714 7.43334 9.69827 7.61108 9.55589L9.37992 10.5855C9.36637 10.65 9.35917 10.7166 9.35917 10.7849C9.35917 11.335 9.82039 11.7827 10.3871 11.7827C10.9539 11.7827 11.4151 11.335 11.4151 10.7849C11.4151 10.6313 11.3762 10.4876 11.3121 10.3575L13.7133 8.02673C13.8473 7.89669 13.8473 7.68647 13.7133 7.55642C13.6463 7.4914 13.5587 7.45898 13.4711 7.45898ZM7.30323 8.78936C7.30323 8.60577 7.14937 8.45677 6.96057 8.45677C6.77176 8.45677 6.61791 8.60577 6.61791 8.78936C6.61791 8.97295 6.77176 9.12196 6.96057 9.12196C7.14937 9.12196 7.30323 8.97295 7.30323 8.78936ZM10.7298 10.7849C10.7298 10.6013 10.5759 10.4523 10.3871 10.4523C10.1983 10.4523 10.0445 10.6013 10.0445 10.7849C10.0445 10.9685 10.1983 11.1175 10.3871 11.1175C10.5759 11.1175 10.7298 10.9685 10.7298 10.7849ZM3.87665 11.7827C3.87665 11.5991 3.7228 11.4501 3.53399 11.4501C3.34519 11.4501 3.19134 11.5991 3.19134 11.7827C3.19134 11.9663 3.34519 12.1153 3.53399 12.1153C3.7228 12.1153 3.87665 11.9663 3.87665 11.7827Z" fill="#808183" stroke="#808183" stroke-width="0.199557"/>
</g>
<defs>
<clipPath id="clip0_582_16362">
<rect width="15.9645" height="15.9645" fill="white" transform="translate(0.243896 0.807129)"/>
</clipPath>
</defs>
</svg>
