<svg width="161" height="33" viewBox="0 0 161 33" fill="none" xmlns="http://www.w3.org/2000/svg">
<g clip-path="url(#clip0_582_16251)">
<path d="M25.9699 4.22949C25.7826 4.88339 25.5712 5.53127 25.3718 6.18216C25.7766 6.17914 26.1813 6.18216 26.586 6.18216C26.5014 5.86274 26.3897 5.54935 26.2961 5.22993C26.1813 4.89545 26.1028 4.55192 25.9699 4.22949Z" fill="#2E50BC"/>
<path d="M30.5881 0.65625C27.4469 0.659263 24.3057 0.653237 21.1646 0.659263C21.1646 3.85946 21.1646 7.06268 21.1646 10.2629C24.3057 10.2659 27.4469 10.2629 30.5881 10.2629C30.5881 7.06268 30.5881 3.85946 30.5881 0.65625ZM27.2536 8.30117C27.1389 7.94861 27.0301 7.59002 26.9184 7.23745C26.2931 7.23745 25.6709 7.23745 25.0457 7.23745C24.931 7.59303 24.8283 7.95162 24.7105 8.30419C24.2212 8.29816 23.7319 8.30419 23.2426 8.30117C23.9433 6.40576 24.6319 4.50734 25.3357 2.61193C25.7646 2.61494 26.1965 2.61193 26.6284 2.61494C27.3261 4.51035 28.0299 6.40576 28.7306 8.30117C28.2352 8.30117 27.7459 8.30117 27.2536 8.30117Z" fill="#2E50BC"/>
<path d="M10.3668 10.2629C10.3668 7.05966 10.3668 3.85645 10.3668 0.65625C7.22558 0.65625 4.08137 0.65625 0.940186 0.65625C0.940186 3.85946 0.940186 7.05966 0.940186 10.2629C4.08137 10.2659 7.22256 10.2629 10.3668 10.2629ZM6.30135 6.30331C5.95703 6.06826 5.54324 5.98088 5.16267 5.82418C4.69451 5.64639 4.22031 5.41738 3.90317 5.01961C3.60416 4.65801 3.52261 4.14573 3.65852 3.70277C3.77028 3.34719 4.03909 3.05791 4.36227 2.87409C4.82137 2.60891 5.36503 2.52153 5.89058 2.53358C6.44633 2.55467 7.02322 2.7174 7.42795 3.11516C7.74811 3.41951 7.92329 3.85946 7.91121 4.2964C7.45513 4.29339 6.99906 4.29942 6.54298 4.29339C6.546 4.1156 6.49767 3.92576 6.3678 3.79618C6.15637 3.57018 5.81507 3.53703 5.52511 3.58826C5.25932 3.62442 4.97843 3.82029 4.96634 4.10957C4.94822 4.29038 5.07508 4.44104 5.21099 4.5435C5.50397 4.74841 5.85433 4.84182 6.18658 4.95934C6.67588 5.13111 7.17424 5.34204 7.5246 5.73679C7.79644 6.0321 7.93235 6.4359 7.90517 6.83366C7.91423 7.25855 7.70884 7.68042 7.36754 7.93655C6.91449 8.28611 6.32249 8.38253 5.76372 8.37651C5.16871 8.37651 4.55859 8.2168 4.08137 7.85519C3.64946 7.53276 3.40783 6.99036 3.42293 6.45398C3.87901 6.45398 4.33509 6.45699 4.79418 6.45398C4.80626 6.69203 4.84855 6.94817 5.02675 7.11993C5.23516 7.30977 5.53417 7.34292 5.80601 7.34593C6.05368 7.34895 6.33759 7.27663 6.47049 7.05062C6.60641 6.80353 6.53996 6.46302 6.30135 6.30331Z" fill="#DD2237"/>
<path d="M20.4818 0.655636C17.3376 0.655636 14.1904 0.652623 11.0461 0.655636C11.0461 3.85885 11.0461 7.05905 11.0461 10.2623C14.1904 10.2623 17.3376 10.2623 20.4818 10.2623C20.4818 7.06206 20.4818 3.85885 20.4818 0.655636ZM14.9303 4.20237C14.9756 4.42838 15.181 4.57302 15.3743 4.66945C15.8214 4.88942 16.3167 4.98284 16.7577 5.21185C17.1956 5.42279 17.6124 5.75125 17.7846 6.22133C17.9537 6.70649 17.9084 7.29108 17.5792 7.7009C17.2862 8.0625 16.8332 8.25837 16.3801 8.33371C15.7519 8.43315 15.0874 8.38795 14.5014 8.12578C14.1601 7.97512 13.846 7.74007 13.6497 7.41764C13.4685 7.13137 13.39 6.79387 13.3869 6.45939C13.843 6.45939 14.3021 6.45939 14.7582 6.45939C14.7733 6.68238 14.8035 6.92646 14.9666 7.09823C15.1659 7.31217 15.4831 7.34532 15.7579 7.35436C16.0086 7.35738 16.3016 7.28807 16.4375 7.05905C16.5583 6.81798 16.504 6.4835 16.2774 6.32379C15.9784 6.10683 15.616 6.01642 15.2747 5.88986C14.7461 5.69701 14.1994 5.46196 13.846 5.00393C13.4594 4.50673 13.4594 3.74434 13.8702 3.2622C14.2628 2.79513 14.885 2.59926 15.474 2.55406C16.1173 2.50283 16.8181 2.62939 17.3195 3.06031C17.6819 3.36767 17.8782 3.83776 17.8812 4.30784C17.4252 4.31086 16.9661 4.30784 16.51 4.31086C16.4949 4.14211 16.4677 3.95829 16.3439 3.82872C16.1143 3.56655 15.7247 3.54245 15.4045 3.61778C15.1448 3.66901 14.8881 3.91309 14.9303 4.20237Z" fill="#2E50BC"/>
<path d="M17.4765 32.3087H14.2058V21.6276L9.90594 32.3087H8.48788L4.18798 21.6276V32.3087H0.940186V17.0532H5.49168L9.19691 26.2706L12.9021 17.0532H17.4765V32.3087Z" fill="#202023"/>
<path d="M29.8151 30.9135C28.7478 32.0266 27.3297 32.5832 25.561 32.5832C23.7922 32.5832 22.3742 32.0266 21.3068 30.9135C20.2547 29.7852 19.7287 28.4053 19.7287 26.7737C19.7287 25.1422 20.2547 23.7699 21.3068 22.6568C22.3742 21.5437 23.7922 20.9872 25.561 20.9872C27.3297 20.9872 28.7478 21.5437 29.8151 22.6568C30.8825 23.7699 31.4162 25.1422 31.4162 26.7737C31.4162 28.4053 30.8825 29.7852 29.8151 30.9135ZM23.5025 29.0838C24.0057 29.6937 24.6918 29.9987 25.561 29.9987C26.4301 29.9987 27.1163 29.6937 27.6194 29.0838C28.1379 28.4586 28.3971 27.6886 28.3971 26.7737C28.3971 25.8741 28.1379 25.1193 27.6194 24.5094C27.1163 23.8843 26.4301 23.5717 25.561 23.5717C24.6918 23.5717 24.0057 23.8843 23.5025 24.5094C22.9993 25.1193 22.7477 25.8741 22.7477 26.7737C22.7477 27.6886 22.9993 28.4586 23.5025 29.0838Z" fill="#202023"/>
<path d="M36.4758 28.7636C36.7198 29.1143 37.0781 29.4116 37.5508 29.6556C38.0235 29.8843 38.4962 29.9987 38.9689 29.9987C39.8075 29.9987 40.486 29.709 41.0044 29.1295C41.5229 28.5349 41.7821 27.7572 41.7821 26.7966C41.7821 25.836 41.5229 25.0584 41.0044 24.4637C40.486 23.869 39.8075 23.5717 38.9689 23.5717C38.4962 23.5717 38.0235 23.6937 37.5508 23.9376C37.0781 24.1816 36.7198 24.4866 36.4758 24.8525V28.7636ZM36.4758 32.3087H33.5711V17.0532H36.4758V22.6797C37.345 21.5513 38.4809 20.9872 39.8837 20.9872C41.317 20.9872 42.4911 21.5132 43.406 22.5653C44.3209 23.6174 44.7783 25.0279 44.7783 26.7966C44.7783 28.5959 44.3209 30.0139 43.406 31.0508C42.4911 32.0724 41.317 32.5832 39.8837 32.5832C38.5114 32.5832 37.3755 32.019 36.4758 30.8907V32.3087Z" fill="#202023"/>
<path d="M48.4135 20.0723C47.9408 20.0723 47.5291 19.9046 47.1784 19.5691C46.8429 19.2184 46.6752 18.8067 46.6752 18.334C46.6752 17.8614 46.8429 17.4573 47.1784 17.1218C47.5291 16.7864 47.9408 16.6187 48.4135 16.6187C48.9014 16.6187 49.3131 16.7864 49.6486 17.1218C49.984 17.4573 50.1517 17.8614 50.1517 18.334C50.1517 18.8067 49.984 19.2184 49.6486 19.5691C49.3131 19.9046 48.9014 20.0723 48.4135 20.0723ZM49.8773 32.3087H46.9726V21.2616H49.8773V32.3087Z" fill="#202023"/>
<path d="M55.6622 32.3087H52.7575V17.0532H55.6622V32.3087Z" fill="#202023"/>
<path d="M63.7344 32.5832C62.0266 32.5832 60.6162 32.0495 59.5031 30.9821C58.39 29.9148 57.8335 28.512 57.8335 26.7737C57.8335 25.1422 58.3671 23.7699 59.4345 22.6568C60.5171 21.5437 61.8894 20.9872 63.5514 20.9872C65.1982 20.9872 66.5324 21.5513 67.554 22.6797C68.5756 23.7928 69.0864 25.2566 69.0864 27.0711V27.7115H60.8754C60.9669 28.4434 61.2947 29.0533 61.8589 29.5412C62.4231 30.0292 63.155 30.2731 64.0546 30.2731C64.5425 30.2731 65.0686 30.174 65.6327 29.9758C66.2122 29.7776 66.6696 29.5107 67.0051 29.1753L68.2859 31.0508C67.1728 32.0724 65.6556 32.5832 63.7344 32.5832ZM66.2732 25.7445C66.2274 25.1193 65.9758 24.5552 65.5184 24.052C65.0762 23.5488 64.4205 23.2972 63.5514 23.2972C62.728 23.2972 62.0876 23.5488 61.6302 24.052C61.1727 24.5399 60.9059 25.1041 60.8297 25.7445H66.2732Z" fill="#202023"/>
<path d="M87.832 32.3087H84.1954L81.2678 28.0546L79.9412 29.4726V32.3087H77.0365V17.0532H79.9412V26.1791L84.1267 21.2616H87.6947L83.3262 26.2706L87.832 32.3087Z" fill="#202023"/>
<path d="M90.7174 20.0723C90.2447 20.0723 89.833 19.9046 89.4823 19.5691C89.1469 19.2184 88.9791 18.8067 88.9791 18.334C88.9791 17.8614 89.1469 17.4573 89.4823 17.1218C89.833 16.7864 90.2447 16.6187 90.7174 16.6187C91.2053 16.6187 91.617 16.7864 91.9525 17.1218C92.2879 17.4573 92.4557 17.8614 92.4557 18.334C92.4557 18.8067 92.2879 19.2184 91.9525 19.5691C91.617 19.9046 91.2053 20.0723 90.7174 20.0723ZM92.1812 32.3087H89.2765V21.2616H92.1812V32.3087Z" fill="#202023"/>
<path d="M98.7667 32.5832C97.7451 32.5832 96.9674 32.324 96.4337 31.8055C95.9001 31.2871 95.6332 30.54 95.6332 29.5641V23.8004H93.8035V21.2616H95.6332V18.2426H98.5608V21.2616H100.802V23.8004H98.5608V28.7865C98.5608 29.1372 98.6523 29.4269 98.8353 29.6556C99.0183 29.8843 99.2622 29.9987 99.5672 29.9987C100.025 29.9987 100.36 29.8919 100.574 29.6785L101.191 31.8741C100.657 32.3468 99.8493 32.5832 98.7667 32.5832Z" fill="#202023"/>
</g>
<defs>
<clipPath id="clip0_582_16251">
<rect width="159.645" height="31.929" fill="white" transform="translate(0.940186 0.654297)"/>
</clipPath>
</defs>
</svg>
