<svg width="15" height="16" viewBox="0 0 15 16" fill="none" xmlns="http://www.w3.org/2000/svg">
<path fill-rule="evenodd" clip-rule="evenodd" d="M7.20453 9.6507C8.12358 9.6507 8.87836 8.90573 8.89039 7.98676C8.90242 7.0678 8.16714 6.32283 7.24809 6.32283C6.32905 6.32283 5.57426 7.0678 5.56223 7.98676C5.5502 8.90573 6.28548 9.6507 7.20453 9.6507ZM9.88884 7.98676C9.86959 9.45711 8.66193 10.6491 7.19146 10.6491C5.72098 10.6491 4.54453 9.45711 4.56378 7.98676C4.58303 6.51642 5.79069 5.32446 7.26116 5.32446C8.73164 5.32446 9.90809 6.51642 9.88884 7.98676Z" fill="#808183"/>
<path fill-rule="evenodd" clip-rule="evenodd" d="M6.57693 1.8916L6.30885 2.66538C6.08281 3.31783 5.59947 3.78002 5.09587 4.05838C5.05292 4.08211 5.01039 4.10652 4.96829 4.1316C4.47279 4.42672 3.83056 4.60947 3.15772 4.47142L2.35998 4.30775C2.22002 4.27904 2.07621 4.34334 2.00296 4.46738L1.58028 5.1832C1.50703 5.30724 1.52078 5.46319 1.61442 5.57036L2.14888 6.18206C2.59745 6.69545 2.75207 7.33885 2.73548 7.91215C2.73404 7.96173 2.73339 8.01137 2.73353 8.06095C2.73511 8.63424 2.56364 9.27764 2.10163 9.79103L1.55116 10.4027C1.45472 10.5099 1.43688 10.6658 1.50688 10.7899L1.91082 11.5057C1.98082 11.6297 2.12295 11.694 2.26366 11.6653L3.06563 11.5017C3.7421 11.3636 4.37955 11.5464 4.86733 11.8415C4.90879 11.8666 4.95069 11.891 4.99302 11.9148C5.48934 12.1931 5.96057 12.6553 6.16953 13.3077L6.41735 14.0815C6.46087 14.2174 6.58684 14.3091 6.73009 14.3091H7.55672C7.69996 14.3091 7.82833 14.2174 7.87541 14.0815L8.14349 13.3077C8.36953 12.6553 8.85286 12.1931 9.35647 11.9148C9.39942 11.891 9.44196 11.8666 9.48408 11.8415C9.97959 11.5464 10.6218 11.3636 11.2947 11.5017L12.0923 11.6653C12.2323 11.694 12.3761 11.6297 12.4493 11.5057L12.872 10.7899C12.9453 10.6658 12.9315 10.5099 12.8379 10.4027L12.3035 9.79106C11.8549 9.27767 11.7003 8.63427 11.7169 8.06098C11.7183 8.01137 11.7189 7.96172 11.7188 7.91212C11.7172 7.33882 11.8887 6.69542 12.3507 6.18202L12.9011 5.57036C12.9976 5.46319 13.0154 5.30724 12.9454 5.1832L12.5415 4.46738C12.4715 4.34334 12.3294 4.27904 12.1886 4.30775L11.3866 4.47142C10.7102 4.60946 10.0727 4.42671 9.58497 4.1316C9.54353 4.10652 9.50164 4.08211 9.45932 4.05838C8.963 3.78002 8.49177 3.31783 8.28281 2.66538L8.03499 1.89159C7.99147 1.75571 7.86549 1.66406 7.72225 1.66406H6.89562C6.75238 1.66406 6.624 1.75571 6.57693 1.8916ZM5.36584 2.34969C5.23978 2.71355 4.95917 2.99959 4.6216 3.18618C4.56909 3.2152 4.5171 3.24504 4.46563 3.2757C4.13378 3.47334 3.7459 3.57039 3.37067 3.4934L2.57293 3.32973C2.01309 3.21487 1.43786 3.47207 1.14488 3.96823L0.722192 4.68406C0.429209 5.18022 0.48422 5.80403 0.85876 6.2327L1.39322 6.84439C1.64367 7.13103 1.74852 7.51328 1.73744 7.89633C1.7357 7.95646 1.73491 8.01663 1.73507 8.07676C1.73613 8.45981 1.62126 8.84206 1.36332 9.12869L0.812843 9.74038C0.42708 10.169 0.355736 10.7929 0.635728 11.289L1.03967 12.0048C1.31966 12.501 1.88817 12.7582 2.45101 12.6434L3.25298 12.4797C3.63023 12.4027 4.01557 12.4998 4.34225 12.6974C4.39293 12.7281 4.44415 12.7579 4.49591 12.7869C4.8286 12.9735 5.10172 13.2596 5.21826 13.6234L5.46608 14.3972C5.64015 14.9407 6.14405 15.3074 6.71702 15.3074H7.54365C8.11662 15.3074 8.63011 14.9407 8.81842 14.3972L9.0865 13.6234C9.21256 13.2596 9.49317 12.9735 9.83074 12.7869C9.88326 12.7579 9.93527 12.7281 9.98674 12.6974C10.3186 12.4998 10.7065 12.4027 11.0817 12.4797L11.8794 12.6433C12.4392 12.7582 13.0144 12.501 13.3074 12.0048L13.7301 11.289C14.0231 10.7929 13.9681 10.169 13.5935 9.74038L13.0591 9.12873C12.8087 8.84209 12.7038 8.45984 12.7149 8.07679C12.7166 8.01665 12.7174 7.95645 12.7173 7.8963C12.7162 7.51325 12.8311 7.13099 13.089 6.84436L13.6395 6.2327C14.0252 5.80403 14.0966 5.18022 13.8166 4.68406L13.4126 3.96824C13.1326 3.47207 12.5641 3.21487 12.0013 3.32973L11.1993 3.4934C10.822 3.57038 10.4367 3.47334 10.11 3.27569C10.0594 3.24504 10.0082 3.2152 9.95642 3.18618C9.62374 2.99959 9.35062 2.71355 9.23408 2.34969L8.98626 1.57591C8.81218 1.03238 8.30829 0.665771 7.73532 0.665771L6.90869 0.665771C6.33571 0.665771 5.82222 1.03238 5.63392 1.57591L5.36584 2.34969Z" fill="#808183"/>
</svg>
