<svg width="31" height="11" viewBox="0 0 31 11" fill="none" xmlns="http://www.w3.org/2000/svg">
<path d="M25.9699 4.22949C25.7826 4.88339 25.5712 5.53127 25.3718 6.18216C25.7766 6.17914 26.1813 6.18216 26.586 6.18216C26.5014 5.86274 26.3897 5.54935 26.2961 5.22993C26.1813 4.89545 26.1028 4.55192 25.9699 4.22949Z" fill="#2E50BC"/>
<path d="M30.5881 0.65625C27.4469 0.659263 24.3057 0.653237 21.1646 0.659263C21.1646 3.85946 21.1646 7.06268 21.1646 10.2629C24.3057 10.2659 27.4469 10.2629 30.5881 10.2629C30.5881 7.06268 30.5881 3.85946 30.5881 0.65625ZM27.2536 8.30117C27.1389 7.94861 27.0301 7.59002 26.9184 7.23745C26.2931 7.23745 25.6709 7.23745 25.0457 7.23745C24.931 7.59303 24.8283 7.95162 24.7105 8.30419C24.2212 8.29816 23.7319 8.30419 23.2426 8.30117C23.9433 6.40576 24.6319 4.50734 25.3357 2.61193C25.7646 2.61494 26.1965 2.61193 26.6284 2.61494C27.3261 4.51035 28.0299 6.40576 28.7306 8.30117C28.2352 8.30117 27.7459 8.30117 27.2536 8.30117Z" fill="#2E50BC"/>
<path d="M10.3668 10.2629C10.3668 7.05966 10.3668 3.85645 10.3668 0.65625C7.22558 0.65625 4.08137 0.65625 0.940186 0.65625C0.940186 3.85946 0.940186 7.05966 0.940186 10.2629C4.08137 10.2659 7.22256 10.2629 10.3668 10.2629ZM6.30135 6.30331C5.95703 6.06826 5.54324 5.98088 5.16267 5.82418C4.69451 5.64639 4.22031 5.41738 3.90317 5.01961C3.60416 4.65801 3.52261 4.14573 3.65852 3.70277C3.77028 3.34719 4.03909 3.05791 4.36227 2.87409C4.82137 2.60891 5.36503 2.52153 5.89058 2.53358C6.44633 2.55467 7.02322 2.7174 7.42795 3.11516C7.74811 3.41951 7.92329 3.85946 7.91121 4.2964C7.45513 4.29339 6.99906 4.29942 6.54298 4.29339C6.546 4.1156 6.49767 3.92576 6.3678 3.79618C6.15637 3.57018 5.81507 3.53703 5.52511 3.58826C5.25932 3.62442 4.97843 3.82029 4.96634 4.10957C4.94822 4.29038 5.07508 4.44104 5.21099 4.5435C5.50397 4.74841 5.85433 4.84182 6.18658 4.95934C6.67588 5.13111 7.17424 5.34204 7.5246 5.73679C7.79644 6.0321 7.93235 6.4359 7.90517 6.83366C7.91423 7.25855 7.70884 7.68042 7.36754 7.93655C6.91449 8.28611 6.32249 8.38253 5.76372 8.37651C5.16871 8.37651 4.55859 8.2168 4.08137 7.85519C3.64946 7.53276 3.40783 6.99036 3.42293 6.45398C3.87901 6.45398 4.33509 6.45699 4.79418 6.45398C4.80626 6.69203 4.84855 6.94817 5.02675 7.11993C5.23516 7.30977 5.53417 7.34292 5.80601 7.34593C6.05368 7.34895 6.33759 7.27663 6.47049 7.05062C6.60641 6.80353 6.53996 6.46302 6.30135 6.30331Z" fill="#DD2237"/>
<path d="M20.4818 0.655636C17.3376 0.655636 14.1904 0.652623 11.0461 0.655636C11.0461 3.85885 11.0461 7.05905 11.0461 10.2623C14.1904 10.2623 17.3376 10.2623 20.4818 10.2623C20.4818 7.06206 20.4818 3.85885 20.4818 0.655636ZM14.9303 4.20237C14.9756 4.42838 15.181 4.57302 15.3743 4.66945C15.8214 4.88942 16.3167 4.98284 16.7577 5.21185C17.1956 5.42279 17.6124 5.75125 17.7846 6.22133C17.9537 6.70649 17.9084 7.29108 17.5792 7.7009C17.2862 8.0625 16.8332 8.25837 16.3801 8.33371C15.7519 8.43315 15.0874 8.38795 14.5014 8.12578C14.1601 7.97512 13.846 7.74007 13.6497 7.41764C13.4685 7.13137 13.39 6.79387 13.3869 6.45939C13.843 6.45939 14.3021 6.45939 14.7582 6.45939C14.7733 6.68238 14.8035 6.92646 14.9666 7.09823C15.1659 7.31217 15.4831 7.34532 15.7579 7.35436C16.0086 7.35738 16.3016 7.28807 16.4375 7.05905C16.5583 6.81798 16.504 6.4835 16.2774 6.32379C15.9784 6.10683 15.616 6.01642 15.2747 5.88986C14.7461 5.69701 14.1994 5.46196 13.846 5.00393C13.4594 4.50673 13.4594 3.74434 13.8702 3.2622C14.2628 2.79513 14.885 2.59926 15.474 2.55406C16.1173 2.50283 16.8181 2.62939 17.3195 3.06031C17.6819 3.36767 17.8782 3.83776 17.8812 4.30784C17.4252 4.31086 16.9661 4.30784 16.51 4.31086C16.4949 4.14211 16.4677 3.95829 16.3439 3.82872C16.1143 3.56655 15.7247 3.54245 15.4045 3.61778C15.1448 3.66901 14.8881 3.91309 14.9303 4.20237Z" fill="#2E50BC"/>
</svg>
