<svg width="20" height="21" viewBox="0 0 20 21" fill="none" xmlns="http://www.w3.org/2000/svg">
<path d="M9.39529 10.1707C10.5865 10.1707 11.618 9.74344 12.4607 8.90051C13.3035 8.05773 13.7308 7.02652 13.7308 5.8352C13.7308 4.64428 13.3035 3.61294 12.4606 2.76988C11.6177 1.92723 10.5863 1.5 9.39529 1.5C8.20396 1.5 7.17276 1.92723 6.32997 2.77002C5.48718 3.6128 5.05981 4.64414 5.05981 5.8352C5.05981 7.02652 5.48718 8.05786 6.33011 8.90065C7.17303 9.7433 8.20437 10.1707 9.39529 10.1707Z" fill="#808183"/>
<path d="M16.9811 15.3412C16.9568 14.9905 16.9076 14.6079 16.8352 14.2039C16.7622 13.7968 16.6681 13.412 16.5555 13.0603C16.4392 12.6968 16.281 12.3378 16.0854 11.9938C15.8824 11.6368 15.644 11.3259 15.3765 11.07C15.0968 10.8024 14.7543 10.5872 14.3582 10.4302C13.9635 10.2741 13.5261 10.195 13.0583 10.195C12.8745 10.195 12.6968 10.2704 12.3536 10.4938C12.1424 10.6315 11.8954 10.7908 11.6196 10.967C11.3838 11.1173 11.0644 11.258 10.6698 11.3855C10.2849 11.51 9.89407 11.5732 9.50832 11.5732C9.12256 11.5732 8.73186 11.51 8.34652 11.3855C7.95238 11.2582 7.63296 11.1174 7.39744 10.9672C7.12429 10.7926 6.8771 10.6333 6.66273 10.4937C6.31995 10.2702 6.14211 10.1948 5.95837 10.1948C5.49035 10.1948 5.0531 10.2741 4.65855 10.4303C4.26277 10.587 3.92013 10.8022 3.64012 11.0702C3.37274 11.3261 3.1342 11.6369 2.9315 11.9938C2.73608 12.3378 2.57788 12.6967 2.46142 13.0605C2.34895 13.4122 2.25488 13.7968 2.18182 14.2039C2.10945 14.6073 2.06029 14.9901 2.03598 15.3416C2.01208 15.6861 2 16.0435 2 16.4046C2 17.3442 2.29869 18.1048 2.88769 18.6658C3.46942 19.2194 4.23915 19.5002 5.17518 19.5002H13.8423C14.7783 19.5002 15.5478 19.2195 16.1296 18.6658C16.7188 18.1052 17.0175 17.3444 17.0175 16.4044C17.0173 16.0417 17.0051 15.684 16.9811 15.3412Z" fill="#808183"/>
</svg>
