<svg width="250" height="80" viewBox="0 0 250 80" fill="none" xmlns="http://www.w3.org/2000/svg">
<g clip-path="url(#clip0_144_709)">
<path d="M62.5464 8.95752C62.0785 10.5959 61.5501 12.2192 61.052 13.85C62.0634 13.8425 63.0748 13.85 64.0861 13.85C63.8748 13.0497 63.5955 12.2645 63.3616 11.4642C63.0748 10.6261 62.8785 9.76539 62.5464 8.95752Z" fill="#2E50BC"/>
<path d="M74.0871 0.00476074C66.2376 0.0123109 58.3881 -0.00278943 50.5386 0.0123109C50.5386 8.03059 50.5386 16.0564 50.5386 24.0747C58.3881 24.0822 66.2376 24.0747 74.0871 24.0747C74.0871 16.0564 74.0871 8.03059 74.0871 0.00476074ZM65.7545 19.1595C65.4677 18.2762 65.196 17.3777 64.9167 16.4943C63.3544 16.4943 61.7996 16.4943 60.2372 16.4943C59.9504 17.3852 59.6938 18.2837 59.3994 19.1671C58.1767 19.152 56.954 19.1671 55.7313 19.1595C57.4824 14.4105 59.2032 9.65388 60.9618 4.90482C62.0336 4.91237 63.1129 4.90482 64.1922 4.91237C65.9357 9.66143 67.6942 14.4105 69.4453 19.1595C68.2075 19.1595 66.9848 19.1595 65.7545 19.1595Z" fill="#2E50BC"/>
<path d="M23.556 24.0747C23.556 16.0489 23.556 8.02304 23.556 0.00476074C15.7065 0.00476074 7.84949 0.00476074 0 0.00476074C0 8.03059 0 16.0489 0 24.0747C7.84949 24.0822 15.699 24.0747 23.556 24.0747ZM13.397 14.1538C12.5365 13.5649 11.5025 13.3459 10.5515 12.9533C9.38165 12.5078 8.19668 11.934 7.40418 10.9374C6.65697 10.0314 6.45319 8.74786 6.79283 7.63798C7.07209 6.74706 7.74383 6.02224 8.55142 5.56168C9.69865 4.89727 11.0572 4.67831 12.3705 4.70852C13.7593 4.76137 15.2008 5.16908 16.2122 6.1657C17.0123 6.92826 17.45 8.03059 17.4198 9.12536C16.2801 9.11781 15.1405 9.13291 14.0008 9.11781C14.0083 8.67235 13.8876 8.19669 13.563 7.87204C13.0347 7.30577 12.1818 7.22272 11.4572 7.35107C10.7931 7.44168 10.0911 7.93244 10.0609 8.65725C10.0157 9.11026 10.3326 9.48777 10.6723 9.74448C11.4044 10.2579 12.2799 10.4919 13.1102 10.7864C14.3329 11.2168 15.5782 11.7453 16.4537 12.7343C17.133 13.4743 17.4727 14.486 17.4047 15.4826C17.4274 16.5472 16.9141 17.6042 16.0613 18.246C14.9291 19.1218 13.4498 19.3634 12.0535 19.3483C10.5666 19.3483 9.04201 18.9481 7.84949 18.0421C6.77019 17.2342 6.16638 15.8752 6.20412 14.5313C7.3438 14.5313 8.48349 14.5388 9.63072 14.5313C9.66091 15.1277 9.76658 15.7695 10.2119 16.1999C10.7327 16.6755 11.4799 16.7586 12.1592 16.7661C12.7781 16.7737 13.4875 16.5925 13.8196 16.0262C14.1593 15.4071 13.9932 14.5539 13.397 14.1538Z" fill="#DD2237"/>
<path d="M48.8321 0.00335563C40.975 0.00335563 33.1105 -0.00419454 25.2534 0.00335563C25.2534 8.02919 25.2534 16.0475 25.2534 24.0733C33.1105 24.0733 40.975 24.0733 48.8321 24.0733C48.8321 16.055 48.8321 8.02919 48.8321 0.00335563ZM34.9596 8.88991C35.0728 9.45617 35.5861 9.81858 36.0691 10.0602C37.1861 10.6113 38.424 10.8454 39.5259 11.4192C40.6203 11.9477 41.6619 12.7707 42.0921 13.9485C42.5147 15.1641 42.4015 16.6288 41.5788 17.6557C40.8467 18.5617 39.7146 19.0524 38.5825 19.2412C37.0126 19.4903 35.3521 19.3771 33.8879 18.7202C33.035 18.3427 32.25 17.7538 31.7594 16.9459C31.3066 16.2287 31.1103 15.3831 31.1028 14.545C32.2425 14.545 33.3897 14.545 34.5294 14.545C34.5671 15.1037 34.6426 15.7153 35.0502 16.1456C35.5483 16.6817 36.3408 16.7647 37.0277 16.7874C37.6541 16.7949 38.3862 16.6213 38.7259 16.0475C39.0278 15.4435 38.8919 14.6054 38.3258 14.2052C37.5786 13.6616 36.6729 13.4351 35.82 13.118C34.4992 12.6348 33.1331 12.0459 32.25 10.8983C31.2839 9.65247 31.2839 7.74228 32.3104 6.53425C33.2916 5.36398 34.8464 4.87322 36.3182 4.75996C37.9258 4.63161 39.6769 4.94872 40.9298 6.02839C41.8355 6.79851 42.3261 7.97634 42.3336 9.15416C41.1939 9.16171 40.0467 9.15416 38.907 9.16171C38.8693 8.7389 38.8013 8.27834 38.4919 7.95368C37.9183 7.29682 36.9446 7.23642 36.1446 7.42517C35.4955 7.55353 34.8539 8.16509 34.9596 8.88991Z" fill="#2E50BC"/>
<path d="M41.3225 79.3123H33.1494V52.5501L22.4044 79.3123H18.8609L8.11589 52.5501V79.3123H0V41.0888H11.3737L20.6327 64.1834L29.8916 41.0888H41.3225V79.3123Z" fill="#202023"/>
<path d="M72.1554 75.8166C69.4882 78.6055 65.9446 80 61.5247 80C57.1048 80 53.5612 78.6055 50.894 75.8166C48.2649 72.9895 46.9504 69.532 46.9504 65.4441C46.9504 61.3563 48.2649 57.9179 50.894 55.1289C53.5612 52.34 57.1048 50.9456 61.5247 50.9456C65.9446 50.9456 69.4882 52.34 72.1554 55.1289C74.8226 57.9179 76.1562 61.3563 76.1562 65.4441C76.1562 69.532 74.8226 72.9895 72.1554 75.8166ZM56.3808 71.2321C57.6382 72.7603 59.3528 73.5244 61.5247 73.5244C63.6965 73.5244 65.4112 72.7603 66.6686 71.2321C67.9641 69.6657 68.6118 67.7364 68.6118 65.4441C68.6118 63.1901 67.9641 61.299 66.6686 59.7708C65.4112 58.2044 63.6965 57.4212 61.5247 57.4212C59.3528 57.4212 57.6382 58.2044 56.3808 59.7708C55.1234 61.299 54.4947 63.1901 54.4947 65.4441C54.4947 67.7364 55.1234 69.6657 56.3808 71.2321Z" fill="#202023"/>
<path d="M88.7997 70.4298C89.4094 71.3085 90.3048 72.0535 91.486 72.6648C92.6672 73.2378 93.8483 73.5244 95.0295 73.5244C97.1252 73.5244 98.8208 72.7985 100.116 71.3467C101.412 69.8567 102.059 67.9083 102.059 65.5014C102.059 63.0946 101.412 61.1461 100.116 59.6562C98.8208 58.1662 97.1252 57.4212 95.0295 57.4212C93.8483 57.4212 92.6672 57.7268 91.486 58.3381C90.3048 58.9494 89.4094 59.7135 88.7997 60.6304V70.4298ZM88.7997 79.3123H81.5411V41.0888H88.7997V55.1862C90.9716 52.3591 93.8102 50.9456 97.3157 50.9456C100.897 50.9456 103.831 52.2636 106.117 54.8997C108.404 57.5358 109.547 61.0697 109.547 65.5014C109.547 70.0096 108.404 73.5626 106.117 76.1605C103.831 78.7202 100.897 80 97.3157 80C93.8864 80 91.0478 78.5864 88.7997 75.7593V79.3123Z" fill="#202023"/>
<path d="M118.631 48.6533C117.449 48.6533 116.421 48.233 115.544 47.3926C114.706 46.5138 114.287 45.4823 114.287 44.298C114.287 43.1137 114.706 42.1012 115.544 41.2607C116.421 40.4202 117.449 40 118.631 40C119.85 40 120.879 40.4202 121.717 41.2607C122.555 42.1012 122.974 43.1137 122.974 44.298C122.974 45.4823 122.555 46.5138 121.717 47.3926C120.879 48.233 119.85 48.6533 118.631 48.6533ZM122.289 79.3123H115.03V51.6332H122.289V79.3123Z" fill="#202023"/>
<path d="M136.744 79.3123H129.486V41.0888H136.744V79.3123Z" fill="#202023"/>
<path d="M156.916 80C152.648 80 149.124 78.6628 146.342 75.9885C143.561 73.3142 142.17 69.7994 142.17 65.4441C142.17 61.3563 143.504 57.9179 146.171 55.1289C148.876 52.34 152.305 50.9456 156.459 50.9456C160.574 50.9456 163.908 52.3591 166.461 55.1862C169.014 57.9752 170.29 61.6428 170.29 66.1891V67.7937H149.772C150 69.6275 150.819 71.1557 152.229 72.3782C153.639 73.6008 155.468 74.212 157.716 74.212C158.935 74.212 160.25 73.9637 161.66 73.467C163.108 72.9704 164.251 72.3018 165.089 71.4613L168.29 76.1605C165.508 78.7202 161.717 80 156.916 80ZM163.26 62.8653C163.146 61.299 162.517 59.8854 161.374 58.6246C160.269 57.3639 158.631 56.7335 156.459 56.7335C154.401 56.7335 152.801 57.3639 151.658 58.6246C150.515 59.8472 149.848 61.2607 149.657 62.8653H163.26Z" fill="#202023"/>
<path d="M217.133 79.3123H208.046L200.73 68.6533L197.415 72.2063V79.3123H190.156V41.0888H197.415V63.9542L207.874 51.6332H216.79L205.874 64.1834L217.133 79.3123Z" fill="#202023"/>
<path d="M224.344 48.6533C223.162 48.6533 222.134 48.233 221.257 47.3926C220.419 46.5138 220 45.4823 220 44.298C220 43.1137 220.419 42.1012 221.257 41.2607C222.134 40.4202 223.162 40 224.344 40C225.563 40 226.592 40.4202 227.43 41.2607C228.268 42.1012 228.687 43.1137 228.687 44.298C228.687 45.4823 228.268 46.5138 227.43 47.3926C226.592 48.233 225.563 48.6533 224.344 48.6533ZM228.001 79.3123H220.743V51.6332H228.001V79.3123Z" fill="#202023"/>
<path d="M244.458 80C241.905 80 239.962 79.3505 238.628 78.0516C237.294 76.7526 236.628 74.8806 236.628 72.4355V57.9943H232.055V51.6332H236.628V44.0688H243.943V51.6332H249.545V57.9943H243.943V70.4871C243.943 71.3658 244.172 72.0917 244.629 72.6648C245.087 73.2378 245.696 73.5244 246.458 73.5244C247.601 73.5244 248.44 73.2569 248.973 72.7221L250.516 78.2235C249.183 79.4078 247.163 80 244.458 80Z" fill="#202023"/>
</g>
<defs>
<clipPath id="clip0_144_709">
<rect width="250" height="80" fill="white"/>
</clipPath>
</defs>
</svg>
